<svg width="45" height="45" viewBox="0 0 45 45" fill="none" xmlns="http://www.w3.org/2000/svg">
<rect x="1" y="1" width="43" height="43" rx="19" stroke="black" stroke-width="2"/>
<g clip-path="url(#clip0_26_180)">
<path d="M29.25 23H23V29.25H29.25V23ZM28 9.25V11.75H18V9.25H15.5V11.75H14.25C12.8625 11.75 11.7625 12.875 11.7625 14.25L11.75 31.75C11.75 33.125 12.8625 34.25 14.25 34.25H31.75C33.125 34.25 34.25 33.125 34.25 31.75V14.25C34.25 12.875 33.125 11.75 31.75 11.75H30.5V9.25H28ZM31.75 31.75H14.25V18H31.75V31.75Z" fill="black"/>
</g>
<defs>
<clipPath id="clip0_26_180">
<rect width="30" height="30" fill="white" transform="translate(8 8)"/>
</clipPath>
</defs>
</svg>
