<svg width="20" height="26" viewBox="0 0 20 26" fill="none" xmlns="http://www.w3.org/2000/svg">
<path fill-rule="evenodd" clip-rule="evenodd" d="M9.55596 1.19449C4.94022 1.19449 1.19449 4.95136 1.19449 9.59055C1.19449 10.7169 1.70047 12.2169 2.53194 13.8909C3.35403 15.5459 4.45628 17.2976 5.56779 18.9045C6.67784 20.5092 7.78911 21.9582 8.62347 23.0066C8.99958 23.4792 9.31895 23.8698 9.55596 24.1558C9.79297 23.8698 10.1123 23.4792 10.4884 23.0066C11.3228 21.9582 12.4341 20.5092 13.5441 18.9045C14.6556 17.2976 15.7579 15.5459 16.58 13.8909C17.4114 12.2169 17.9174 10.7169 17.9174 9.59055C17.9174 4.95136 14.1717 1.19449 9.55596 1.19449ZM9.55596 25.0844C9.10328 25.474 9.1032 25.4739 9.10309 25.4738L9.10269 25.4733L9.10128 25.4717L9.09604 25.4656L9.07607 25.4422L8.99958 25.3522C8.93288 25.2735 8.8355 25.1578 8.71181 25.0091C8.46447 24.7117 8.11178 24.2818 7.68884 23.7504C6.84345 22.6882 5.71504 21.2171 4.58541 19.584C3.45725 17.953 2.31982 16.1489 1.46215 14.4222C0.613864 12.7144 0 11.0065 0 9.59055C0 4.296 4.27618 0 9.55596 0C14.8357 0 19.1119 4.296 19.1119 9.59055C19.1119 11.0065 18.4981 12.7144 17.6498 14.4222C16.7921 16.1489 15.6547 17.953 14.5265 19.584C13.3969 21.2171 12.2685 22.6882 11.4231 23.7504C11.0001 24.2818 10.6474 24.7117 10.4001 25.0091C10.2764 25.1578 10.179 25.2735 10.1123 25.3522L10.0358 25.4422L10.0159 25.4656L10.0106 25.4717L10.0092 25.4733L10.0088 25.4738C10.0087 25.4739 10.0086 25.474 9.55596 25.0844ZM9.55596 25.0844L10.0086 25.474L9.55596 26L9.10328 25.474L9.55596 25.0844ZM9.55596 6.03704C7.60439 6.03704 6.01841 7.62583 6.01841 9.59055C6.01841 11.5553 7.60439 13.1441 9.55596 13.1441C11.5075 13.1441 13.0935 11.5553 13.0935 9.59055C13.0935 7.62583 11.5075 6.03704 9.55596 6.03704ZM4.82392 9.59055C4.82392 6.97047 6.94036 4.84254 9.55596 4.84254C12.1716 4.84254 14.288 6.97047 14.288 9.59055C14.288 12.2106 12.1716 14.3385 9.55596 14.3385C6.94036 14.3385 4.82392 12.2106 4.82392 9.59055Z" fill="black"/>
</svg>
