<svg width="45" height="45" viewBox="0 0 45 45" fill="none" xmlns="http://www.w3.org/2000/svg">
<rect x="1" y="1" width="43" height="43" rx="19" stroke="black" stroke-width="2"/>
<g clip-path="url(#clip0_26_179)">
<path d="M28.375 26.5H27.3875L27.0375 26.1625C28.2625 24.7375 29 22.8875 29 20.875C29 16.3875 25.3625 12.75 20.875 12.75C16.3875 12.75 12.75 16.3875 12.75 20.875C12.75 25.3625 16.3875 29 20.875 29C22.8875 29 24.7375 28.2625 26.1625 27.0375L26.5 27.3875V28.375L32.75 34.6125L34.6125 32.75L28.375 26.5ZM20.875 26.5C17.7625 26.5 15.25 23.9875 15.25 20.875C15.25 17.7625 17.7625 15.25 20.875 15.25C23.9875 15.25 26.5 17.7625 26.5 20.875C26.5 23.9875 23.9875 26.5 20.875 26.5Z" fill="black"/>
</g>
<defs>
<clipPath id="clip0_26_179">
<rect width="30" height="30" fill="white" transform="translate(9 9)"/>
</clipPath>
</defs>
</svg>
